<?xml version="1.0" standalone="no"?><svg xmlns="http://www.w3.org/2000/svg" viewBox="0 0 1440 320"><path fill="#8257e6" fill-opacity="1" d="M0,320L30,304C60,288,120,256,180,245.3C240,235,300,245,360,261.3C420,277,480,299,540,288C600,277,660,235,720,224C780,213,840,235,900,250.7C960,267,1020,277,1080,288C1140,299,1200,309,1260,293.3C1320,277,1380,235,1410,213.3L1440,192L1440,0L1410,0C1380,0,1320,0,1260,0C1200,0,1140,0,1080,0C1020,0,960,0,900,0C840,0,780,0,720,0C660,0,600,0,540,0C480,0,420,0,360,0C300,0,240,0,180,0C120,0,60,0,30,0L0,0Z"></path></svg>